<?xml version="1.0" encoding="UTF-8" standalone="no"?>
<svg xmlns="http://www.w3.org/2000/svg" contentScriptType="application/ecmascript" contentStyleType="text/css"
     height="1121px" preserveAspectRatio="none" style="width:426px;height:1121px;" version="1.1" viewBox="0 0 426 1121"
     width="426px" zoomAndPan="magnify">
    <defs>
        <filter height="300%" id="f1rog523e3l1d1" width="300%" x="-1" y="-1">
            <feGaussianBlur result="blurOut" stdDeviation="2.0"/>
            <feColorMatrix in="blurOut" result="blurOut2" type="matrix"
                           values="0 0 0 0 0 0 0 0 0 0 0 0 0 0 0 0 0 0 .4 0"/>
            <feOffset dx="4.0" dy="4.0" in="blurOut2" result="blurOut3"/>
            <feBlend in="SourceGraphic" in2="blurOut3" mode="normal"/>
        </filter>
    </defs>
    <g>
        <ellipse cx="202.5" cy="18" fill="#000000" filter="url(#f1rog523e3l1d1)" rx="10" ry="10"
                 style="stroke: none; stroke-width: 1.0;"/>
        <rect fill="#FEFECE" filter="url(#f1rog523e3l1d1)" height="34.1328" rx="12.5" ry="12.5"
              style="stroke: #A80036; stroke-width: 1.5;" width="72" x="166.5" y="69"/>
        <text fill="#000000" font-family="sans-serif" font-size="12" lengthAdjust="spacingAndGlyphs" textLength="52"
              x="176.5" y="90.6016">Switching
        </text>
        <polygon fill="#FEFECE" filter="url(#f1rog523e3l1d1)" points="202.5,144,214.5,156,202.5,168,190.5,156,202.5,144"
                 style="stroke: #A80036; stroke-width: 1.5;"/>
        <rect fill="#FEFECE" filter="url(#f1rog523e3l1d1)" height="34.1328" rx="12.5" ry="12.5"
              style="stroke: #A80036; stroke-width: 1.5;" width="168" x="61.5" y="222"/>
        <text fill="#000000" font-family="sans-serif" font-size="12" lengthAdjust="spacingAndGlyphs" textLength="148"
              x="71.5" y="243.6016">Restore previous session?
        </text>
        <polygon fill="#FEFECE" filter="url(#f1rog523e3l1d1)" points="143.5,297,155.5,309,143.5,321,131.5,309,143.5,297"
                 style="stroke: #A80036; stroke-width: 1.5;"/>
        <rect fill="#FEFECE" filter="url(#f1rog523e3l1d1)" height="34.1328" rx="12.5" ry="12.5"
              style="stroke: #A80036; stroke-width: 1.5;" width="171" x="58" y="375"/>
        <text fill="#000000" font-family="sans-serif" font-size="12" lengthAdjust="spacingAndGlyphs" textLength="151"
              x="68" y="396.6016">Restored previous session
        </text>
        <rect fill="#FEFECE" filter="url(#f1rog523e3l1d1)" height="34.1328" rx="12.5" ry="12.5"
              style="stroke: #A80036; stroke-width: 1.5;" width="127" x="80" y="450"/>
        <text fill="#000000" font-family="sans-serif" font-size="12" lengthAdjust="spacingAndGlyphs" textLength="107"
              x="90" y="471.6016">Waiting for beacon
        </text>
        <polygon fill="#FEFECE" filter="url(#f1rog523e3l1d1)" points="143.5,525,155.5,537,143.5,549,131.5,537,143.5,525"
                 style="stroke: #A80036; stroke-width: 1.5;"/>
        <rect fill="#FEFECE" filter="url(#f1rog523e3l1d1)" height="34.1328" rx="12.5" ry="12.5"
              style="stroke: #A80036; stroke-width: 1.5;" width="163" x="6" y="603"/>
        <text fill="#000000" font-family="sans-serif" font-size="12" lengthAdjust="spacingAndGlyphs" textLength="143"
              x="16" y="624.6016">Detected AP rate limiting
        </text>
        <polygon fill="#FEFECE" filter="url(#f1rog523e3l1d1)" points="120.5,691,132.5,703,120.5,715,108.5,703,120.5,691"
                 style="stroke: #A80036; stroke-width: 1.5;"/>
        <rect fill="#FEFECE" filter="url(#f1rog523e3l1d1)" height="34.1328" rx="12.5" ry="12.5"
              style="stroke: #A80036; stroke-width: 1.5;" width="78" x="161.5" y="769"/>
        <text fill="#000000" font-family="sans-serif" font-size="12" lengthAdjust="spacingAndGlyphs" textLength="58"
              x="171.5" y="790.6016">Trying pin
        </text>
        <polygon fill="#FEFECE" filter="url(#f1rog523e3l1d1)" points="212.5,844,224.5,856,212.5,868,200.5,856,212.5,844"
                 style="stroke: #A80036; stroke-width: 1.5;"/>
        <rect fill="#FEFECE" filter="url(#f1rog523e3l1d1)" height="34.1328" rx="12.5" ry="12.5"
              style="stroke: #A80036; stroke-width: 1.5;" width="166" x="129.5" y="922"/>
        <text fill="#000000" font-family="sans-serif" font-size="12" lengthAdjust="spacingAndGlyphs" textLength="146"
              x="139.5" y="943.6016">Receive timeout occurred
        </text>
        <polygon fill="#FEFECE" filter="url(#f1rog523e3l1d1)"
                 points="193.5,1015,205.5,1027,193.5,1039,181.5,1027,193.5,1015"
                 style="stroke: #A80036; stroke-width: 1.5;"/>
        <polygon fill="#FEFECE" filter="url(#f1rog523e3l1d1)"
                 points="144.5,1085,156.5,1097,144.5,1109,132.5,1097,144.5,1085"
                 style="stroke: #A80036; stroke-width: 1.5;"/>
        <polygon fill="#FEFECE" filter="url(#f1rog523e3l1d1)" points="327.5,927,339.5,939,327.5,951,315.5,939,327.5,927"
                 style="stroke: #A80036; stroke-width: 1.5;"/>
        <rect fill="#FEFECE" filter="url(#f1rog523e3l1d1)" height="34.1328" rx="12.5" ry="12.5"
              style="stroke: #A80036; stroke-width: 1.5;" width="87" x="284" y="1010"/>
        <text fill="#000000" font-family="sans-serif" font-size="12" lengthAdjust="spacingAndGlyphs" textLength="67"
              x="294" y="1031.6016">Pin cracked
        </text>
        <ellipse cx="327.5" cy="1097" fill="none" filter="url(#f1rog523e3l1d1)" rx="10" ry="10"
                 style="stroke: #000000; stroke-width: 1.0;"/>
        <ellipse cx="328" cy="1097.5" fill="#000000" rx="6" ry="6"
                 style="stroke: none; stroke-width: 1.0;"/><!--link start to Switching-->
        <path d="M202.5,28.18 C202.5,37.27 202.5,51.53 202.5,63.49 " fill="none" id="start-&gt;Switching"
              style="stroke: #A80036; stroke-width: 1.0;"/>
        <polygon fill="#A80036" points="202.5,68.79,206.5,59.79,202.5,63.79,198.5,59.79,202.5,68.79"
                 style="stroke: #A80036; stroke-width: 1.0;"/><!--link Switching to #5-->
        <path d="M202.5,103.12 C202.5,113.92 202.5,128.08 202.5,138.88 " fill="none" id="Switching-&gt;#5"
              style="stroke: #A80036; stroke-width: 1.0;"/>
        <polygon fill="#A80036" points="202.5,143.89,206.5,134.89,202.5,138.89,198.5,134.89,202.5,143.89"
                 style="stroke: #A80036; stroke-width: 1.0;"/>
        <text fill="#000000" font-family="sans-serif" font-size="11" lengthAdjust="spacingAndGlyphs" textLength="95"
              x="87.9063" y="135.2514">Previous session?
        </text><!--link #5 to Restore previous session?-->
        <path d="M197.84,163.63 C189.65,175.26 172.38,199.8 159.92,217.51 " fill="none"
              id="#5-&gt;Restore previous session?" style="stroke: #A80036; stroke-width: 1.0;"/>
        <polygon fill="#A80036"
                 points="156.86,221.86,165.3111,216.8024,159.7378,217.7712,158.769,212.1979,156.86,221.86"
                 style="stroke: #A80036; stroke-width: 1.0;"/>
        <text fill="#000000" font-family="sans-serif" font-size="11" lengthAdjust="spacingAndGlyphs" textLength="19"
              x="179.5" y="199.6348">Yes
        </text><!--link Restore previous session? to #10-->
        <path d="M145.03,256.12 C144.7,267.05 144.28,281.44 143.96,292.29 " fill="none"
              id="Restore previous session?-&gt;#10" style="stroke: #A80036; stroke-width: 1.0;"/>
        <polygon fill="#A80036" points="143.81,297.3,148.0654,288.4179,143.9528,292.302,140.0687,288.1894,143.81,297.3"
                 style="stroke: #A80036; stroke-width: 1.0;"/>
        <text fill="#000000" font-family="sans-serif" font-size="11" lengthAdjust="spacingAndGlyphs" textLength="46"
              x="85.6141" y="286.6777">Restore?
        </text><!--link #10 to Restored previous session-->
        <path d="M143.5,321.26 C143.5,333.76 143.5,354.21 143.5,369.74 " fill="none"
              id="#10-&gt;Restored previous session" style="stroke: #A80036; stroke-width: 1.0;"/>
        <polygon fill="#A80036" points="143.5,374.8,147.5,365.8,143.5,369.8,139.5,365.8,143.5,374.8"
                 style="stroke: #A80036; stroke-width: 1.0;"/>
        <text fill="#000000" font-family="sans-serif" font-size="11" lengthAdjust="spacingAndGlyphs" textLength="19"
              x="144.5" y="352.6348">Yes
        </text><!--link Restored previous session to beacon-->
        <path d="M143.5,409.2 C143.5,419.69 143.5,433.46 143.5,444.82 " fill="none"
              id="Restored previous session-&gt;beacon" style="stroke: #A80036; stroke-width: 1.0;"/>
        <polygon fill="#A80036" points="143.5,449.84,147.5,440.84,143.5,444.84,139.5,440.84,143.5,449.84"
                 style="stroke: #A80036; stroke-width: 1.0;"/><!--link #10 to beacon-->
        <path d="M134.8,312.7 C103.59,322.83 0.69,360.58 30.5,409 C41.44,426.77 59.81,439.2 78.59,447.8 " fill="none"
              id="#10-&gt;beacon" style="stroke: #A80036; stroke-width: 1.0;"/>
        <polygon fill="#A80036" points="83.37,449.91,76.7469,442.6206,78.7945,447.8939,73.5212,449.9415,83.37,449.91"
                 style="stroke: #A80036; stroke-width: 1.0;"/>
        <text fill="#000000" font-family="sans-serif" font-size="11" lengthAdjust="spacingAndGlyphs" textLength="15"
              x="31.5" y="396.6348">No
        </text><!--link #5 to beacon-->
        <path d="M209.15,161.63 C224.39,172.83 260.5,203.06 260.5,238 C260.5,238 260.5,238 260.5,393 C260.5,420.16 237.53,437.58 211.94,448.57 "
              fill="none" id="#5-&gt;beacon" style="stroke: #A80036; stroke-width: 1.0;"/>
        <polygon fill="#A80036" points="207.14,450.54,216.9855,450.7967,211.7604,448.6291,213.928,443.404,207.14,450.54"
                 style="stroke: #A80036; stroke-width: 1.0;"/><!--link beacon to #19-->
        <path d="M143.5,484.12 C143.5,494.92 143.5,509.08 143.5,519.88 " fill="none" id="beacon-&gt;#19"
              style="stroke: #A80036; stroke-width: 1.0;"/>
        <polygon fill="#A80036" points="143.5,524.89,147.5,515.89,143.5,519.89,139.5,515.89,143.5,524.89"
                 style="stroke: #A80036; stroke-width: 1.0;"/>
        <text fill="#000000" font-family="sans-serif" font-size="11" lengthAdjust="spacingAndGlyphs" textLength="43"
              x="89.4813" y="514.4881">Locked?
        </text><!--link #19 to limiting-->
        <path d="M138.92,544.63 C130.87,556.26 113.91,580.8 101.66,598.51 " fill="none" id="#19-&gt;limiting"
              style="stroke: #A80036; stroke-width: 1.0;"/>
        <polygon fill="#A80036" points="98.66,602.86,107.067,597.7295,101.5023,598.7465,100.4854,593.1818,98.66,602.86"
                 style="stroke: #A80036; stroke-width: 1.0;"/>
        <text fill="#000000" font-family="sans-serif" font-size="11" lengthAdjust="spacingAndGlyphs" textLength="19"
              x="122.5" y="580.6348">Yes
        </text><!--link limiting to #24-->
        <path d="M96.24,637.26 C99.36,643.36 102.77,650.42 105.5,657 C109.77,667.3 113.72,679.3 116.49,688.31 "
              fill="none" id="limiting-&gt;#24" style="stroke: #A80036; stroke-width: 1.0;"/>
        <polygon fill="#A80036"
                 points="117.98,693.24,119.2118,683.4685,116.5367,688.4528,111.5523,685.7777,117.98,693.24"
                 style="stroke: #A80036; stroke-width: 1.0;"/>
        <text fill="#000000" font-family="sans-serif" font-size="11" lengthAdjust="spacingAndGlyphs" textLength="55"
              x="45.3432" y="682.8963">Unlocked?
        </text><!--link #24 to limiting-->
        <path d="M112.82,698.23 C103.86,693.34 89.53,683.91 83.5,671 C79.34,662.08 79.63,651.28 81.26,642.01 "
              fill="none" id="#24-&gt;limiting" style="stroke: #A80036; stroke-width: 1.0;"/>
        <polygon fill="#A80036" points="82.28,637.04,76.5387,645.0424,81.2665,641.9362,84.3727,646.664,82.28,637.04"
                 style="stroke: #A80036; stroke-width: 1.0;"/>
        <text fill="#000000" font-family="sans-serif" font-size="11" lengthAdjust="spacingAndGlyphs" textLength="15"
              x="84.5" y="668.6348">No
        </text><!--link #24 to trying-->
        <path d="M126,709.89 C134.11,718.55 149.81,735.18 163.5,749 C168.83,754.38 174.67,760.13 180.11,765.42 "
              fill="none" id="#24-&gt;trying" style="stroke: #A80036; stroke-width: 1.0;"/>
        <polygon fill="#A80036" points="183.8,769,180.1348,759.8585,180.2148,765.5148,174.5585,765.5948,183.8,769"
                 style="stroke: #A80036; stroke-width: 1.0;"/>
        <text fill="#000000" font-family="sans-serif" font-size="11" lengthAdjust="spacingAndGlyphs" textLength="19"
              x="164.5" y="746.6348">Yes
        </text><!--link #19 to trying-->
        <path d="M148.2,544.43 C156.15,555.68 172.09,579.91 179.5,603 C197.48,659.06 200.44,729.2 200.7,763.75 "
              fill="none" id="#19-&gt;trying" style="stroke: #A80036; stroke-width: 1.0;"/>
        <polygon fill="#A80036" points="200.72,768.98,204.6943,759.9686,200.7057,763.98,196.6943,759.9915,200.72,768.98"
                 style="stroke: #A80036; stroke-width: 1.0;"/>
        <text fill="#000000" font-family="sans-serif" font-size="11" lengthAdjust="spacingAndGlyphs" textLength="15"
              x="194.5" y="668.6348">No
        </text><!--link trying to #31-->
        <path d="M203.34,803.12 C205.35,814.46 208,829.51 209.94,840.48 " fill="none" id="trying-&gt;#31"
              style="stroke: #A80036; stroke-width: 1.0;"/>
        <polygon fill="#A80036" points="210.82,845.5,213.1919,835.941,209.9494,840.5764,205.3141,837.3339,210.82,845.5"
                 style="stroke: #A80036; stroke-width: 1.0;"/>
        <text fill="#000000" font-family="sans-serif" font-size="11" lengthAdjust="spacingAndGlyphs" textLength="49"
              x="144.4757" y="833.5199">Timeout?
        </text><!--link #31 to timeout-->
        <path d="M212.5,868.26 C212.5,880.76 212.5,901.21 212.5,916.74 " fill="none" id="#31-&gt;timeout"
              style="stroke: #A80036; stroke-width: 1.0;"/>
        <polygon fill="#A80036" points="212.5,921.8,216.5,912.8,212.5,916.8,208.5,912.8,212.5,921.8"
                 style="stroke: #A80036; stroke-width: 1.0;"/>
        <text fill="#000000" font-family="sans-serif" font-size="11" lengthAdjust="spacingAndGlyphs" textLength="19"
              x="213.5" y="899.6348">Yes
        </text><!--link timeout to #36-->
        <path d="M208.93,956.18 C205.4,972.12 200.07,996.27 196.69,1011.58 " fill="none" id="timeout-&gt;#36"
              style="stroke: #A80036; stroke-width: 1.0;"/>
        <polygon fill="#A80036"
                 points="195.54,1016.79,201.3799,1008.8593,196.614,1011.9067,193.5666,1007.1409,195.54,1016.79"
                 style="stroke: #A80036; stroke-width: 1.0;"/>
        <text fill="#000000" font-family="sans-serif" font-size="11" lengthAdjust="spacingAndGlyphs" textLength="34"
              x="208.63" y="1004.6087">Fixed?
        </text><!--link #36 to trying-->
        <path d="M187.71,1020.55 C170.33,1004.19 119.73,956.54 119.5,956 C113.52,942.12 115.47,936.56 119.5,922 C131.91,877.18 163.61,832.3 183.47,807.24 "
              fill="none" id="#36-&gt;trying" style="stroke: #A80036; stroke-width: 1.0;"/>
        <polygon fill="#A80036"
                 points="186.79,803.09,178.0382,807.6073,183.6613,806.9902,184.2785,812.6132,186.79,803.09"
                 style="stroke: #A80036; stroke-width: 1.0;"/>
        <text fill="#000000" font-family="sans-serif" font-size="11" lengthAdjust="spacingAndGlyphs" textLength="19"
              x="133.5" y="899.6348">Yes
        </text><!--link #36 to #40-->
        <path d="M188.8,1034.52 C180.37,1046.23 162.57,1070.92 152.29,1085.19 " fill="none" id="#36-&gt;#40"
              style="stroke: #A80036; stroke-width: 1.0;"/>
        <polygon fill="#A80036"
                 points="149.11,1089.6,157.6209,1084.6437,152.0364,1085.5459,151.1342,1079.9614,149.11,1089.6"
                 style="stroke: #A80036; stroke-width: 1.0;"/>
        <text fill="#000000" font-family="sans-serif" font-size="11" lengthAdjust="spacingAndGlyphs" textLength="43"
              x="164.4496" y="1080.6428">Locked?
        </text><!--link #40 to limiting-->
        <path d="M135.1,1094.19 C110.57,1088.87 46.5,1070.87 46.5,1028 C46.5,702 46.5,702 46.5,702 C46.5,679.53 59.22,656.96 70.49,641.37 "
              fill="none" id="#40-&gt;limiting" style="stroke: #A80036; stroke-width: 1.0;"/>
        <polygon fill="#A80036" points="73.62,637.17,65.0393,642.0043,70.636,641.182,71.4584,646.7787,73.62,637.17"
                 style="stroke: #A80036; stroke-width: 1.0;"/>
        <text fill="#000000" font-family="sans-serif" font-size="11" lengthAdjust="spacingAndGlyphs" textLength="19"
              x="47.5" y="860.6348">Yes
        </text><!--link #40 to timeout-->
        <path d="M143.85,1085.45 C143.22,1068.73 143.63,1035.43 154.5,1010 C162.65,990.93 177.71,972.99 190.45,960.05 "
              fill="none" id="#40-&gt;timeout" style="stroke: #A80036; stroke-width: 1.0;"/>
        <polygon fill="#A80036" points="194.32,956.2,185.1205,959.717,190.7773,959.7284,190.7659,965.3852,194.32,956.2"
                 style="stroke: #A80036; stroke-width: 1.0;"/>
        <text fill="#000000" font-family="sans-serif" font-size="11" lengthAdjust="spacingAndGlyphs" textLength="15"
              x="155.5" y="1031.6348">No
        </text><!--link #31 to #45-->
        <path d="M219.3,861.69 C234.7,872.32 273.42,899.13 305.5,922 C309.1,924.56 313,927.39 316.51,929.94 "
              fill="none" id="#31-&gt;#45" style="stroke: #A80036; stroke-width: 1.0;"/>
        <polygon fill="#A80036" points="320.98,933.21,316.072,924.6712,316.9425,930.2606,311.353,931.1311,320.98,933.21"
                 style="stroke: #A80036; stroke-width: 1.0;"/>
        <text fill="#000000" font-family="sans-serif" font-size="11" lengthAdjust="spacingAndGlyphs" textLength="66"
              x="348.122" y="920.2495">Correct PIN?
        </text><!--link #45 to Pin cracked-->
        <path d="M327.5,951.24 C327.5,964.78 327.5,987.79 327.5,1004.72 " fill="none" id="#45-&gt;Pin cracked"
              style="stroke: #A80036; stroke-width: 1.0;"/>
        <polygon fill="#A80036" points="327.5,1009.76,331.5,1000.76,327.5,1004.76,323.5,1000.76,327.5,1009.76"
                 style="stroke: #A80036; stroke-width: 1.0;"/>
        <text fill="#000000" font-family="sans-serif" font-size="11" lengthAdjust="spacingAndGlyphs" textLength="19"
              x="328.5" y="987.6348">Yes
        </text><!--link Pin cracked to end-->
        <path d="M327.5,1044.12 C327.5,1055.59 327.5,1070.87 327.5,1081.87 " fill="none" id="Pin cracked-&gt;end"
              style="stroke: #A80036; stroke-width: 1.0;"/>
        <polygon fill="#A80036" points="327.5,1086.89,331.5,1077.89,327.5,1081.89,323.5,1077.89,327.5,1086.89"
                 style="stroke: #A80036; stroke-width: 1.0;"/><!--link #45 to trying-->
        <path d="M322.34,931.86 C304.75,910.96 246.65,841.88 217.5,807.21 " fill="none" id="#45-&gt;trying"
              style="stroke: #A80036; stroke-width: 1.0;"/>
        <polygon fill="#A80036"
                 points="214.09,803.16,216.8134,812.6248,217.305,806.9894,222.9404,807.4809,214.09,803.16"
                 style="stroke: #A80036; stroke-width: 1.0;"/>
        <text fill="#000000" font-family="sans-serif" font-size="11" lengthAdjust="spacingAndGlyphs" textLength="15"
              x="268.5" y="860.6348">No
        </text><!--
@startuml reaver
(*) - -> "Switching"
if "Previous session?" then
    - -> [Yes] "Restore previous session?"
    if "Restore?" then
        - ->[Yes] "Restored previous session"
        - -> "Waiting for beacon" as beacon
    else
        ->[No] beacon
    endif
else
    - -> beacon
endif
if "Locked?" then
    - ->[Yes] "Detected AP rate limiting" as limiting
    if "Unlocked?" then
        - ->[Yes] "Trying pin" as trying
    else
        - ->[No] limiting
    endif
else
    - ->[No] trying
endif
if "Timeout?" then
    - ->[Yes] "Receive timeout occurred" as timeout
    if "Fixed?" then
        - ->[Yes] trying
    else
        if "Locked?" then
            - ->[Yes] limiting
        else
            - ->[No] timeout
        endif
    endif
else
    if "Correct PIN?" then
        - ->[Yes] "Pin cracked"
        - -> (*)
    else
        - ->[No] trying
    endif

@enduml

PlantUML version 1.2019.09(Tue Aug 27 04:19:51 NZST 2019)
(GPL source distribution)
Java Runtime: OpenJDK Runtime Environment
JVM: OpenJDK 64-Bit Server VM
Java Version: 14+36-1461
Operating System: Mac OS X
OS Version: 10.15.4
Default Encoding: UTF-8
Language: en
Country: AU
-->
    </g>
</svg>